<?xml version="1.0" encoding="UTF-8"?> <svg xmlns="http://www.w3.org/2000/svg" xmlns:xlink="http://www.w3.org/1999/xlink" width="388" zoomAndPan="magnify" viewBox="0 0 291 354.749987" height="473" preserveAspectRatio="xMidYMid meet" version="1.0"><defs><clipPath id="47d42b1dcf"><path d="M 88.222656 35.429688 L 140.625 35.429688 L 140.625 88 L 88.222656 88 Z M 88.222656 35.429688 " clip-rule="nonzero"></path></clipPath><clipPath id="4afb80b014"><path d="M 88.609375 61.476562 C 88.609375 75.761719 100.199219 87.351562 114.492188 87.351562 C 128.785156 87.351562 140.378906 75.761719 140.378906 61.476562 C 140.378906 47.191406 128.785156 35.601562 114.492188 35.601562 C 100.199219 35.601562 88.609375 47.191406 88.609375 61.476562 " clip-rule="nonzero"></path></clipPath><clipPath id="176bc6e22c"><path d="M 36 99.410156 L 141.09375 99.410156 L 141.09375 204.558594 L 36 204.558594 Z M 36 99.410156 " clip-rule="nonzero"></path></clipPath><clipPath id="35eb7fddeb"><path d="M 141.046875 99.5 C 141.046875 157.402344 94.101562 204.332031 36.175781 204.332031 L 36.175781 99.5 Z M 141.046875 99.5 " clip-rule="nonzero"></path></clipPath><clipPath id="0c83ee97e9"><path d="M 141.09375 99.410156 L 193.511719 99.410156 L 193.511719 202.796875 L 141.09375 202.796875 Z M 141.09375 99.410156 " clip-rule="nonzero"></path></clipPath><clipPath id="691d5796cc"><path d="M 141.707031 151.078125 C 141.707031 179.5625 164.804688 202.652344 193.304688 202.652344 L 193.304688 99.5 C 164.804688 99.5 141.707031 122.585938 141.707031 151.078125 " clip-rule="nonzero"></path></clipPath><clipPath id="20723fa492"><path d="M 202 99.410156 L 254.273438 99.410156 L 254.273438 202.796875 L 202 202.796875 Z M 202 99.410156 " clip-rule="nonzero"></path></clipPath><clipPath id="19041ea7f9"><path d="M 202.496094 151.078125 C 202.496094 179.5625 225.585938 202.652344 254.085938 202.652344 L 254.085938 99.5 C 225.585938 99.5 202.496094 122.585938 202.496094 151.078125 " clip-rule="nonzero"></path></clipPath><clipPath id="f0b5b6e99d"><path d="M 37.113281 234.507812 L 53.984375 234.507812 L 53.984375 324.597656 L 37.113281 324.597656 Z M 37.113281 234.507812 " clip-rule="nonzero"></path></clipPath><clipPath id="e9c1271083"><path d="M 53.957031 316.648438 C 53.957031 318.878906 53.152344 320.738281 51.523438 322.222656 C 49.890625 323.714844 48.011719 324.464844 45.871094 324.464844 C 43.46875 324.464844 41.558594 323.714844 40.101562 322.222656 C 38.648438 320.738281 37.925781 318.878906 37.925781 316.648438 L 37.925781 242.519531 C 37.925781 240.289062 38.703125 238.429688 40.246094 236.9375 C 41.789062 235.449219 43.75 234.691406 46.152344 234.691406 C 48.203125 234.691406 50.027344 235.449219 51.605469 236.9375 C 53.1875 238.429688 53.972656 240.308594 53.972656 242.519531 Z M 53.957031 316.648438 " clip-rule="nonzero"></path></clipPath><clipPath id="cfa0f54826"><path d="M 85 234 L 157 234 L 157 325.96875 L 85 325.96875 Z M 85 234 " clip-rule="nonzero"></path></clipPath><clipPath id="c16d28e414"><path d="M 152.757812 239.0625 C 154.988281 240.183594 156.28125 241.933594 156.667969 244.320312 C 157.050781 246.703125 156.425781 248.898438 154.808594 250.859375 C 153.683594 252.398438 152.265625 253.261719 150.511719 253.417969 C 148.761719 253.578125 146.988281 253.238281 145.183594 252.386719 L 138.691406 250.210938 C 136.433594 249.703125 134.042969 249.441406 131.574219 249.441406 C 126.960938 249.441406 122.824219 250.15625 119.195312 251.617188 C 115.558594 253.066406 112.460938 255.140625 109.902344 257.835938 C 107.339844 260.535156 105.390625 263.707031 104.054688 267.386719 C 102.726562 271.070312 102.082031 275.125 102.082031 279.578125 C 102.082031 284.800781 102.832031 289.320312 104.324219 293.175781 C 105.8125 297.035156 107.898438 300.222656 110.546875 302.800781 C 113.199219 305.375 116.316406 307.269531 119.910156 308.515625 C 123.503906 309.761719 127.402344 310.371094 131.59375 310.371094 L 138.519531 309.726562 C 140.832031 309.304688 143.0625 308.535156 145.195312 307.414062 C 146.988281 306.554688 148.761719 306.257812 150.53125 306.519531 C 152.300781 306.78125 153.761719 307.675781 154.953125 309.214844 C 156.652344 311.355469 157.285156 313.566406 156.8125 315.824219 C 156.335938 318.085938 155.035156 319.730469 152.902344 320.769531 L 146.042969 323.523438 C 143.6875 324.238281 141.308594 324.804688 138.917969 325.1875 L 131.605469 325.765625 C 125.453125 325.765625 119.613281 324.785156 114.085938 322.820312 C 108.566406 320.855469 103.65625 317.949219 99.339844 314.089844 C 95.03125 310.234375 91.625 305.429688 89.136719 299.664062 C 86.644531 293.898438 85.421875 287.203125 85.421875 279.589844 C 85.421875 272.996094 86.554688 266.933594 88.820312 261.375 C 91.078125 255.820312 94.292969 251.015625 98.445312 246.949219 C 102.605469 242.882812 107.5 239.722656 113.144531 237.464844 C 118.789062 235.203125 124.941406 234.066406 131.628906 234.066406 C 135.394531 234.066406 139.0625 234.5 142.65625 235.347656 C 146.25 236.1875 149.636719 237.445312 152.789062 239.0625 " clip-rule="nonzero"></path></clipPath><clipPath id="6c6e2d8eff"><path d="M 182.253906 234 L 255 234 L 255 325.96875 L 182.253906 325.96875 Z M 182.253906 234 " clip-rule="nonzero"></path></clipPath><clipPath id="ebd6782595"><path d="M 249.894531 239.0625 C 252.117188 240.183594 253.417969 241.933594 253.804688 244.320312 C 254.191406 246.703125 253.578125 248.898438 251.945312 250.859375 C 250.824219 252.398438 249.40625 253.261719 247.648438 253.417969 C 245.894531 253.578125 244.125 253.238281 242.316406 252.386719 L 235.828125 250.210938 C 233.566406 249.703125 231.183594 249.441406 228.710938 249.441406 C 224.097656 249.441406 219.960938 250.15625 216.328125 251.617188 C 212.699219 253.066406 209.59375 255.140625 207.03125 257.835938 C 204.472656 260.535156 202.53125 263.707031 201.195312 267.386719 C 199.859375 271.070312 199.210938 275.125 199.210938 279.578125 C 199.210938 284.800781 199.96875 289.320312 201.457031 293.175781 C 202.949219 297.035156 205.035156 300.222656 207.6875 302.800781 C 210.328125 305.375 213.457031 307.269531 217.050781 308.515625 C 220.644531 309.761719 224.53125 310.371094 228.726562 310.371094 L 235.652344 309.726562 C 237.96875 309.304688 240.195312 308.535156 242.335938 307.414062 C 244.125 306.554688 245.894531 306.257812 247.664062 306.519531 C 249.441406 306.78125 250.890625 307.675781 252.082031 309.214844 C 253.785156 311.355469 254.417969 313.566406 253.941406 315.824219 C 253.472656 318.085938 252.171875 319.730469 250.03125 320.769531 L 243.175781 323.523438 C 240.828125 324.238281 238.445312 324.804688 236.058594 325.1875 L 228.746094 325.765625 C 222.589844 325.765625 216.746094 324.785156 211.226562 322.820312 C 205.703125 320.855469 200.789062 317.949219 196.480469 314.089844 C 192.164062 310.234375 188.761719 305.429688 186.269531 299.664062 C 183.785156 293.898438 182.550781 287.203125 182.550781 279.589844 C 182.550781 272.996094 183.695312 266.933594 185.953125 261.375 C 188.21875 255.820312 191.425781 251.015625 195.582031 246.949219 C 199.742188 242.882812 204.628906 239.722656 210.28125 237.464844 C 215.925781 235.203125 222.082031 234.066406 228.757812 234.066406 C 232.53125 234.066406 236.195312 234.5 239.796875 235.347656 C 243.386719 236.1875 246.777344 237.445312 249.929688 239.0625 " clip-rule="nonzero"></path></clipPath></defs><g clip-path="url(#47d42b1dcf)"><g clip-path="url(#4afb80b014)"><path fill="#ed3c54" d="M 1.101562 0.542969 L 289.15625 0.542969 L 289.15625 352.054688 L 1.101562 352.054688 Z M 1.101562 0.542969 " fill-opacity="1" fill-rule="nonzero"></path></g></g><g clip-path="url(#176bc6e22c)"><g clip-path="url(#35eb7fddeb)"><path fill="#f37730" d="M 1.101562 0.542969 L 289.15625 0.542969 L 289.15625 352.054688 L 1.101562 352.054688 Z M 1.101562 0.542969 " fill-opacity="1" fill-rule="nonzero"></path></g></g><g clip-path="url(#0c83ee97e9)"><g clip-path="url(#691d5796cc)"><path fill="#0c9a63" d="M 1.101562 0.542969 L 289.15625 0.542969 L 289.15625 352.054688 L 1.101562 352.054688 Z M 1.101562 0.542969 " fill-opacity="1" fill-rule="nonzero"></path></g></g><g clip-path="url(#20723fa492)"><g clip-path="url(#19041ea7f9)"><path fill="#0c9a63" d="M 1.101562 0.542969 L 289.15625 0.542969 L 289.15625 352.054688 L 1.101562 352.054688 Z M 1.101562 0.542969 " fill-opacity="1" fill-rule="nonzero"></path></g></g><g clip-path="url(#f0b5b6e99d)"><g clip-path="url(#e9c1271083)"><path fill="#272827" d="M 1.101562 0.542969 L 289.15625 0.542969 L 289.15625 352.054688 L 1.101562 352.054688 Z M 1.101562 0.542969 " fill-opacity="1" fill-rule="nonzero"></path></g></g><g clip-path="url(#cfa0f54826)"><g clip-path="url(#c16d28e414)"><path fill="#272827" d="M 1.101562 0.542969 L 289.15625 0.542969 L 289.15625 352.054688 L 1.101562 352.054688 Z M 1.101562 0.542969 " fill-opacity="1" fill-rule="nonzero"></path></g></g><g clip-path="url(#6c6e2d8eff)"><g clip-path="url(#ebd6782595)"><path fill="#272827" d="M 1.101562 0.542969 L 289.15625 0.542969 L 289.15625 352.054688 L 1.101562 352.054688 Z M 1.101562 0.542969 " fill-opacity="1" fill-rule="nonzero"></path></g></g></svg> 